<?xml version="1.0" standalone="no"?>
<!DOCTYPE svg PUBLIC "-//W3C//DTD SVG 20010904//EN"
 "http://www.w3.org/TR/2001/REC-SVG-20010904/DTD/svg10.dtd">
<svg version="1.0" xmlns="http://www.w3.org/2000/svg"
 width="100.000000pt" height="100.000000pt" viewBox="0 0 100.000000 100.000000"
 preserveAspectRatio="xMidYMid meet">

<g transform="translate(0.000000,100.000000) scale(0.100000,-0.100000)"
fill="#000000" stroke="none">
<path d="M440 937 c-246 -84 -385 -326 -325 -562 19 -73 77 -194 105 -220 43
-39 47 3 24 235 -5 53 -2 76 15 121 29 75 88 141 159 176 78 38 193 40 265 4
l49 -24 79 79 c43 43 79 84 79 91 0 30 -123 96 -214 114 l-58 12 -26 -34 -27
-33 -5 29 c-7 39 -34 42 -120 12z"/>
<path d="M456 660 c-135 -53 -203 -194 -161 -336 22 -76 22 -167 0 -222 -25
-61 -14 -69 75 -54 40 7 104 29 151 51 l82 40 139 -51 c97 -35 143 -47 150
-40 7 7 -6 52 -43 145 l-54 135 -32 -5 c-65 -11 -130 38 -101 75 21 27 41 40
69 46 51 10 63 -1 99 -95 32 -83 50 -104 65 -79 7 12 -66 206 -101 267 -69
119 -213 172 -338 123z"/>
</g>
</svg>
